<svg width="448" height="512" viewBox="0 0 448 512" fill="none" xmlns="http://www.w3.org/2000/svg">
<g clip-path="url(#clip0_23_31)">
<path d="M224 256C166.8 256 118.4 218.5 102 166.7C100.9 168 99.8 169.3 98.5 170.5C82.7 186.3 59.7 191.2 44.9 192.6C36.8 193.4 30.3 186.9 31.1 178.8C32.5 164.1 37.4 141 53.2 125.2C59 119.4 65.8 115.1 72.8 111.8C65.8 108.6 59 104.2 53.2 98.4C37.4 82.7 32.6 59.7 31.1 44.9C30.3 36.8 36.8 30.3 44.9 31.1C59.6 32.5 82.7 37.4 98.5 53.2C103.3 58 107.2 63.6 110.2 69.3C131.4 28.2 174.4 0 224 0C294.7 0 352 57.3 352 128C352 198.7 294.7 256 224 256ZM0 482.3C0 399.5 56.4 330 132.8 309.9C138.8 308.3 145 310.8 148.7 315.7L211.2 399C217.6 407.5 230.4 407.5 236.8 399L299.3 315.7C303 310.8 309.2 308.3 315.2 309.9C391.6 330 448 399.5 448 482.3C448 498.7 434.7 512 418.3 512H29.7C13.3 512 0 498.7 0 482.3ZM160 96C151.2 96 144 103.2 144 112C144 120.8 151.2 128 160 128H288C296.8 128 304 120.8 304 112C304 103.2 296.8 96 288 96H160Z" fill="#3A3A3A"/>
</g>
<defs>
<clipPath id="clip0_23_31">
<rect width="448" height="512" fill="white"/>
</clipPath>
</defs>
</svg>
