<svg width="56" height="64" viewBox="0 0 56 64" fill="none" xmlns="http://www.w3.org/2000/svg">
<g clip-path="url(#clip0_3_14)">
<path d="M12 0C5.375 0 0 5.375 0 12V52C0 58.625 5.375 64 12 64H48H52C54.2125 64 56 62.2125 56 60C56 57.7875 54.2125 56 52 56V48C54.2125 48 56 46.2125 56 44V4C56 1.7875 54.2125 0 52 0H48H12ZM12 48H44V56H12C9.7875 56 8 54.2125 8 52C8 49.7875 9.7875 48 12 48ZM16 18C16 16.9 16.9 16 18 16H42C43.1 16 44 16.9 44 18C44 19.1 43.1 20 42 20H18C16.9 20 16 19.1 16 18ZM18 24H42C43.1 24 44 24.9 44 26C44 27.1 43.1 28 42 28H18C16.9 28 16 27.1 16 26C16 24.9 16.9 24 18 24Z" fill="#3A3A3A"/>
</g>
<defs>
<clipPath id="clip0_3_14">
<rect width="56" height="64" fill="white"/>
</clipPath>
</defs>
</svg>
