<svg width="625" height="512" viewBox="0 0 625 512" fill="none" xmlns="http://www.w3.org/2000/svg">
<path d="M160 0C176.974 0 193.252 6.74284 205.255 18.7452C217.257 30.7475 224 47.0261 224 64C224 80.9739 217.257 97.2525 205.255 109.255C193.252 121.257 176.974 128 160 128C143.026 128 126.747 121.257 114.745 109.255C102.743 97.2525 95.9999 80.9739 95.9999 64C95.9999 47.0261 102.743 30.7475 114.745 18.7452C126.747 6.74284 143.026 0 160 0ZM87.9999 480V400H70.1999C59.2999 400 51.5999 389.3 54.9999 378.9L86.0999 285.5L57.4999 323.3C46.7999 337.4 26.6999 340.1 12.6999 329.5C-1.3001 318.9 -4.1001 298.8 6.4999 284.7L65.3999 207C87.7999 177.4 122.9 160 160 160C197.1 160 232.2 177.4 254.6 207L313.5 284.7C324.2 298.8 321.4 318.9 307.3 329.5C293.2 340.1 273.1 337.4 262.5 323.3L233.9 285.5L265 378.9C268.5 389.3 260.7 400 249.8 400H232V480C232 497.7 217.7 512 200 512C182.3 512 168 497.7 168 480V400H152V480C152 497.7 137.7 512 120 512C102.3 512 87.9999 497.7 87.9999 480ZM480 0C496.974 0 513.252 6.74284 525.255 18.7452C537.257 30.7475 544 47.0261 544 64C544 80.9739 537.257 97.2525 525.255 109.255C513.252 121.257 496.974 128 480 128C463.026 128 446.747 121.257 434.745 109.255C422.743 97.2525 416 80.9739 416 64C416 47.0261 422.743 30.7475 434.745 18.7452C446.747 6.74284 463.026 0 480 0ZM472 384V480C472 497.7 457.7 512 440 512C422.3 512 408 497.7 408 480V300.5L395.1 321C385.7 336 365.9 340.4 351 331C336.1 321.6 331.6 301.8 341 286.9L392.7 204.8C410.3 176.9 441 159.9 473.9 159.9H486.2C519.2 159.9 549.9 176.8 567.4 204.8L619.1 287C628.5 302 624 321.7 609.1 331.1C594.2 340.5 574.4 336 565 321.1L552 300.5V480C552 497.7 537.7 512 520 512C502.3 512 488 497.7 488 480V384H472Z" fill="#3A3A3A"/>
</svg>
