<svg width="448" height="512" viewBox="0 0 448 512" fill="none" xmlns="http://www.w3.org/2000/svg">
<g clip-path="url(#clip0_23_25)">
<path d="M370.7 96.1C346.1 39.5 289.7 0 224 0C158.3 0 101.9 39.5 77.3 96.1C60.9 97.5 48 111.2 48 128V192C48 208.8 60.9 222.5 77.3 223.9C101.9 280.5 158.3 320 224 320C289.7 320 346.1 280.5 370.7 223.9C387.1 222.5 400 208.8 400 192V128C400 111.2 387.1 97.5 370.7 96.1ZM336 144V160C336 213 293 256 240 256H208C155 256 112 213 112 160V144C112 117.5 133.5 96 160 96H288C314.5 96 336 117.5 336 144ZM189.3 162.7L183.3 141.5C182.4 138.2 179.4 136 176 136C172.6 136 169.6 138.2 168.7 141.5L162.7 162.7L141.5 168.7C138.2 169.6 136 172.6 136 176C136 179.4 138.2 182.4 141.5 183.3L162.7 189.3L168.7 210.5C169.6 213.8 172.6 216 176 216C179.4 216 182.4 213.8 183.3 210.5L189.3 189.3L210.5 183.3C213.8 182.4 216 179.4 216 176C216 172.6 213.8 169.6 210.5 168.7L189.3 162.7ZM112.7 316.5C46.7 342.6 0 407 0 482.3C0 498.7 13.3 512 29.7 512H128V448C128 430.3 142.3 416 160 416H288C305.7 416 320 430.3 320 448V512H418.3C434.7 512 448 498.7 448 482.3C448 407 401.3 342.6 335.3 316.5C303.9 338.8 265.5 352 224 352C182.5 352 144.1 338.8 112.7 316.5ZM176 448C167.2 448 160 455.2 160 464V512H192V464C192 455.2 184.8 448 176 448ZM272 480C276.243 480 280.313 478.314 283.314 475.314C286.314 472.313 288 468.243 288 464C288 459.757 286.314 455.687 283.314 452.686C280.313 449.686 276.243 448 272 448C267.757 448 263.687 449.686 260.686 452.686C257.686 455.687 256 459.757 256 464C256 468.243 257.686 472.313 260.686 475.314C263.687 478.314 267.757 480 272 480Z" fill="#3A3A3A"/>
</g>
<defs>
<clipPath id="clip0_23_25">
<rect width="448" height="512" fill="white"/>
</clipPath>
</defs>
</svg>
