<svg width="30" height="30" viewBox="0 0 30 30" fill="none" xmlns="http://www.w3.org/2000/svg">
<g clip-path="url(#clip0_1_33)">
<path d="M10.4082 23.2852C10.4082 23.4023 10.2734 23.4961 10.1035 23.4961C9.91016 23.5137 9.77539 23.4199 9.77539 23.2852C9.77539 23.168 9.91016 23.0742 10.0801 23.0742C10.2559 23.0566 10.4082 23.1504 10.4082 23.2852ZM8.58594 23.0215C8.54492 23.1387 8.66211 23.2734 8.83789 23.3086C8.99023 23.3672 9.16602 23.3086 9.20117 23.1914C9.23633 23.0742 9.125 22.9395 8.94922 22.8867C8.79688 22.8457 8.62695 22.9043 8.58594 23.0215ZM11.1758 22.9219C11.0059 22.9629 10.8887 23.0742 10.9062 23.209C10.9238 23.3262 11.0762 23.4023 11.252 23.3613C11.4219 23.3203 11.5391 23.209 11.5215 23.0918C11.5039 22.9805 11.3457 22.9043 11.1758 22.9219ZM15.0312 0.46875C6.9043 0.46875 0.6875 6.63867 0.6875 14.7656C0.6875 21.2637 4.77734 26.8242 10.6191 28.7812C11.3691 28.916 11.6328 28.4531 11.6328 28.0723C11.6328 27.709 11.6152 25.7051 11.6152 24.4746C11.6152 24.4746 7.51367 25.3535 6.65234 22.7285C6.65234 22.7285 5.98438 21.0234 5.02344 20.584C5.02344 20.584 3.68164 19.6641 5.11719 19.6816C5.11719 19.6816 6.57617 19.7988 7.37891 21.1934C8.66211 23.4551 10.8125 22.8047 11.6504 22.418C11.7852 21.4805 12.166 20.8301 12.5879 20.4434C9.3125 20.0801 6.00781 19.6055 6.00781 13.9688C6.00781 12.3574 6.45312 11.5488 7.39062 10.5176C7.23828 10.1367 6.74023 8.56641 7.54297 6.53906C8.76758 6.1582 11.5859 8.12109 11.5859 8.12109C12.7578 7.79297 14.0176 7.62305 15.2656 7.62305C16.5137 7.62305 17.7734 7.79297 18.9453 8.12109C18.9453 8.12109 21.7637 6.15234 22.9883 6.53906C23.791 8.57227 23.293 10.1367 23.1406 10.5176C24.0781 11.5547 24.6523 12.3633 24.6523 13.9688C24.6523 19.623 21.2012 20.0742 17.9258 20.4434C18.4648 20.9062 18.9219 21.7852 18.9219 23.1621C18.9219 25.1367 18.9043 27.5801 18.9043 28.0605C18.9043 28.4414 19.1738 28.9043 19.918 28.7695C25.7773 26.8242 29.75 21.2637 29.75 14.7656C29.75 6.63867 23.1582 0.46875 15.0312 0.46875ZM6.38281 20.6777C6.30664 20.7363 6.32422 20.8711 6.42383 20.9824C6.51758 21.0762 6.65234 21.1172 6.72852 21.041C6.80469 20.9824 6.78711 20.8477 6.6875 20.7363C6.59375 20.6426 6.45898 20.6016 6.38281 20.6777ZM5.75 20.2031C5.70898 20.2793 5.76758 20.373 5.88477 20.4316C5.97852 20.4902 6.0957 20.4727 6.13672 20.3906C6.17773 20.3145 6.11914 20.2207 6.00195 20.1621C5.88477 20.127 5.79102 20.1445 5.75 20.2031ZM7.64844 22.2891C7.55469 22.3652 7.58984 22.541 7.72461 22.6523C7.85938 22.7871 8.0293 22.8047 8.10547 22.7109C8.18164 22.6348 8.14648 22.459 8.0293 22.3477C7.90039 22.2129 7.72461 22.1953 7.64844 22.2891ZM6.98047 21.4277C6.88672 21.4863 6.88672 21.6387 6.98047 21.7734C7.07422 21.9082 7.23242 21.9668 7.30859 21.9082C7.40234 21.832 7.40234 21.6797 7.30859 21.5449C7.22656 21.4102 7.07422 21.3516 6.98047 21.4277Z" fill="#717070"/>
</g>
<defs>
<clipPath id="clip0_1_33">
<rect width="29.0625" height="30" fill="white" transform="translate(0.6875)"/>
</clipPath>
</defs>
</svg>
