<svg width="27" height="30" viewBox="0 0 27 30" fill="none" xmlns="http://www.w3.org/2000/svg">
<g clip-path="url(#clip0_1_36)">
<path d="M25.125 1.875H2.61914C1.58789 1.875 0.75 2.72461 0.75 3.76758V26.2324C0.75 27.2754 1.58789 28.125 2.61914 28.125H25.125C26.1562 28.125 27 27.2754 27 26.2324V3.76758C27 2.72461 26.1562 1.875 25.125 1.875ZM8.68359 24.375H4.79297V11.8477H8.68945V24.375H8.68359ZM6.73828 10.1367C5.49023 10.1367 4.48242 9.12305 4.48242 7.88086C4.48242 6.63867 5.49023 5.625 6.73828 5.625C7.98047 5.625 8.99414 6.63867 8.99414 7.88086C8.99414 9.12891 7.98633 10.1367 6.73828 10.1367ZM23.2676 24.375H19.377V18.2812C19.377 16.8281 19.3477 14.959 17.3555 14.959C15.3281 14.959 15.0176 16.541 15.0176 18.1758V24.375H11.127V11.8477H14.8594V13.5586H14.9121C15.4336 12.5742 16.7051 11.5371 18.5977 11.5371C22.5352 11.5371 23.2676 14.1328 23.2676 17.5078V24.375Z" fill="#717070"/>
</g>
<defs>
<clipPath id="clip0_1_36">
<rect width="26.25" height="30" fill="white" transform="translate(0.75)"/>
</clipPath>
</defs>
</svg>
