<svg width="654" height="95" viewBox="0 0 654 95" fill="none" xmlns="http://www.w3.org/2000/svg">
<rect width="654" height="95" rx="8" fill="white" fill-opacity="0.7"/>
<path d="M22.0242 68.2612C21.8501 68.0871 21.763 67.717 21.763 67.1511C21.763 66.2805 21.8501 65.8452 22.0242 65.8452C22.3725 65.8452 22.8731 65.7799 23.526 65.6493C24.179 65.5187 24.7884 65.3446 25.3544 65.1269C25.9203 64.8657 26.2468 64.6263 26.3338 64.4087C26.595 63.4074 26.7256 61.4921 26.7256 58.6625V33.9802C26.7256 31.5425 26.595 29.8448 26.3338 28.8871C26.2468 28.6259 25.8985 28.3647 25.2891 28.1035C24.7232 27.7988 24.1137 27.5594 23.4607 27.3852C22.8078 27.1676 22.3072 27.0588 21.9589 27.0588C21.7848 27.0588 21.6977 26.667 21.6977 25.8834C21.6977 25.1869 21.763 24.7734 21.8936 24.6428C23.6349 24.7298 25.2891 24.8169 26.8562 24.904C28.4669 24.9475 30.0122 24.9692 31.4923 24.9692L41.3521 24.8387C42.9628 24.8387 44.5952 25.0563 46.2494 25.4916C47.9036 25.8834 49.5143 26.5146 51.0814 27.3852C52.605 28.2559 53.8456 29.4747 54.8033 31.0419C55.761 32.609 56.2399 34.4156 56.2399 36.4615C56.2399 37.9416 55.9134 39.2693 55.2604 40.4446C54.651 41.62 53.9327 42.5994 53.1056 43.383C52.2785 44.123 51.5167 44.6237 50.8202 44.8848C50.472 45.0154 50.3631 45.146 50.4937 45.2766C51.5385 45.4508 52.605 45.9949 53.6933 46.9091C54.8251 47.8232 55.7828 49.0421 56.5663 50.5657C57.3499 52.0458 57.7417 53.787 57.7417 55.7895C57.7417 58.2707 57.0452 60.4473 55.6522 62.3192C54.2592 64.191 52.322 65.6275 49.8407 66.6288C47.3595 67.5865 44.4646 68.0435 41.1562 68L31.5576 67.8694C30.2516 67.8694 28.7933 67.9129 27.1827 68C25.6155 68.0435 24.3531 68.0871 23.3954 68.1306L22.0242 68.2612ZM39.2626 43.7748C40.9604 43.7748 42.201 43.5789 42.9846 43.1871C43.6811 42.8389 44.1817 42.5124 44.4864 42.2077C44.8346 41.9029 45.2047 41.2717 45.5964 40.3141C46.0318 39.3128 46.2494 38.0504 46.2494 36.5268C46.2494 31.1289 44.247 28.43 40.2421 28.43C38.2396 28.43 36.9772 28.5171 36.4549 28.6912C36.0631 28.7347 35.8672 28.9959 35.8672 29.4747V42.8606C35.8672 43.4701 36.999 43.7748 39.2626 43.7748ZM41.2215 64.4087C45.7053 64.4087 47.9471 61.775 47.9471 56.5077C47.9471 50.4569 45.27 47.4314 39.9156 47.4314C38.5661 47.4314 37.4561 47.5403 36.5854 47.7579C36.1066 47.9756 35.8672 48.1715 35.8672 48.3456V63.0374C35.8672 63.4727 36.0195 63.7775 36.3243 63.9516C36.7596 64.2563 38.392 64.4087 41.2215 64.4087ZM73.016 62.1886C68.8805 57.8354 66.8128 52.6334 66.8128 46.5826C66.8128 43.5354 67.3569 40.6841 68.4452 38.0287C69.5335 35.3297 71.0353 32.979 72.9507 30.9766C74.9096 28.9306 77.1515 27.3417 79.6763 26.2099C82.2011 25.0345 84.9 24.4469 87.7731 24.4469C90.6462 24.4469 93.3451 25.0345 95.8699 26.2099C98.4383 27.3417 100.68 28.9306 102.596 30.9766C104.511 32.979 106.013 35.3297 107.101 38.0287C108.233 40.6841 108.799 43.5354 108.799 46.5826C108.799 52.6334 106.731 57.8354 102.596 62.1886C99.766 65.1487 96.5882 67.1076 93.0622 68.0653C89.5361 69.0665 86.0101 69.0665 82.484 68.0653C79.0015 67.1076 75.8455 65.1487 73.016 62.1886ZM88.8179 64.9963C90.9944 64.9963 92.801 64.2345 94.2375 62.7109C95.7176 61.1873 96.8059 59.1414 97.5024 56.573C98.2424 53.9611 98.6124 51.0445 98.6124 47.8232C98.6124 45.429 98.4165 43.1436 98.0247 40.967C97.6765 38.7905 97.0888 36.7009 96.2617 34.6985C95.4346 32.6525 94.2157 31.0419 92.6051 29.8665C90.9944 28.6912 89.0573 28.1035 86.7937 28.1035C84.4865 28.1035 82.5711 28.9306 81.0475 30.5848C79.5239 32.2825 78.4574 34.3503 77.848 36.788C77.282 39.2258 76.9991 42.0118 76.9991 45.146C76.9991 49.5862 77.848 53.8741 79.5457 58.0096C80.4163 60.0991 81.6352 61.7968 83.2023 63.1027C84.813 64.3651 86.6848 64.9963 88.8179 64.9963ZM124.269 62.1886C120.133 57.8354 118.066 52.6334 118.066 46.5826C118.066 43.5354 118.61 40.6841 119.698 38.0287C120.786 35.3297 122.288 32.979 124.204 30.9766C126.163 28.9306 128.404 27.3417 130.929 26.2099C133.454 25.0345 136.153 24.4469 139.026 24.4469C141.899 24.4469 144.598 25.0345 147.123 26.2099C149.691 27.3417 151.933 28.9306 153.848 30.9766C155.764 32.979 157.266 35.3297 158.354 38.0287C159.486 40.6841 160.052 43.5354 160.052 46.5826C160.052 52.6334 157.984 57.8354 153.848 62.1886C151.019 65.1487 147.841 67.1076 144.315 68.0653C140.789 69.0665 137.263 69.0665 133.737 68.0653C130.254 67.1076 127.098 65.1487 124.269 62.1886ZM140.071 64.9963C142.247 64.9963 144.054 64.2345 145.49 62.7109C146.971 61.1873 148.059 59.1414 148.755 56.573C149.495 53.9611 149.865 51.0445 149.865 47.8232C149.865 45.429 149.669 43.1436 149.278 40.967C148.929 38.7905 148.342 36.7009 147.515 34.6985C146.688 32.6525 145.469 31.0419 143.858 29.8665C142.247 28.6912 140.31 28.1035 138.047 28.1035C135.739 28.1035 133.824 28.9306 132.3 30.5848C130.777 32.2825 129.71 34.3503 129.101 36.788C128.535 39.2258 128.252 42.0118 128.252 45.146C128.252 49.5862 129.101 53.8741 130.799 58.0096C131.669 60.0991 132.888 61.7968 134.455 63.1027C136.066 64.3651 137.938 64.9963 140.071 64.9963ZM169.319 68.2612C169.145 68.0871 169.057 67.7388 169.057 67.2164C169.057 66.3023 169.123 65.8452 169.253 65.8452C169.602 65.8452 170.102 65.7581 170.755 65.584C171.408 65.4099 172.018 65.1922 172.584 64.931C173.149 64.6699 173.476 64.4304 173.563 64.2128C173.737 63.6033 173.846 62.8633 173.889 61.9927C173.977 61.122 174.02 60.1208 174.02 58.989V33.9149C174.02 31.1289 173.846 29.4312 173.498 28.8218C173.367 28.5606 173.019 28.3212 172.453 28.1035C171.931 27.8423 171.386 27.6247 170.82 27.4505C170.255 27.2764 169.798 27.1893 169.449 27.1893C169.275 27.1893 169.188 26.8193 169.188 26.0793C169.188 25.2957 169.232 24.8604 169.319 24.7734L178.787 25.1651C179.222 25.2087 180.202 25.1869 181.725 25.0998C183.249 25.0128 185.316 24.904 187.928 24.7734C188.059 25.1651 188.124 25.5569 188.124 25.9487C188.124 26.7758 188.037 27.1893 187.863 27.1893C187.602 27.1893 187.145 27.2764 186.492 27.4505C185.839 27.6247 185.208 27.8423 184.598 28.1035C184.032 28.3212 183.706 28.5388 183.619 28.7565C183.314 29.8448 183.162 31.6948 183.162 34.3067V44.6237C183.162 44.9719 183.292 45.146 183.553 45.146H184.076C184.337 45.146 185.295 44.3189 186.949 42.6647C188.821 40.7494 190.736 38.7252 192.695 36.5921C194.697 34.4156 196.743 32.1302 198.833 29.7359C199.181 29.2571 199.355 28.7565 199.355 28.2341C199.355 27.9294 199.116 27.7117 198.637 27.5811C198.202 27.407 197.679 27.2764 197.07 27.1893C196.46 27.1023 195.916 27.0588 195.437 27.0588C195.263 27.0588 195.133 26.754 195.046 26.1446C194.959 25.5352 194.959 25.0781 195.046 24.7734C199.878 25.0345 202.794 25.1651 203.796 25.1651C204.318 25.1651 207.191 25.0345 212.415 24.7734C212.502 24.9475 212.524 25.361 212.48 26.014C212.48 26.667 212.415 27.0152 212.284 27.0588L211.892 27.124C211.457 27.124 210.978 27.1676 210.456 27.2546C209.977 27.2982 209.52 27.3635 209.085 27.4505C208.519 27.5811 207.757 27.8641 206.799 28.2994C205.885 28.6912 205.189 29.17 204.71 29.7359L193.479 42.1424C192.956 42.7083 192.934 43.3395 193.413 44.036L208.889 64.2128C209.368 64.7787 210.108 65.1922 211.109 65.4534C212.154 65.7146 212.937 65.8452 213.459 65.8452C213.634 65.8452 213.721 66.2587 213.721 67.0858C213.721 67.5647 213.634 67.9565 213.459 68.2612L209.346 68C207.996 67.9129 206.843 67.8476 205.885 67.8041C204.927 67.7606 204.166 67.7388 203.6 67.7388C202.424 67.7388 201.053 67.7823 199.486 67.8694C197.962 67.9565 196.243 68.0871 194.327 68.2612C194.153 68.0871 194.066 67.63 194.066 66.89C194.066 66.1934 194.153 65.8452 194.327 65.8452C194.806 65.8452 195.437 65.7146 196.221 65.4534C197.005 65.1922 197.396 64.8875 197.396 64.5393C197.396 63.1027 193.522 58.0313 185.774 49.325C185.643 49.1945 185.338 49.1292 184.859 49.1292C183.728 49.1292 183.162 49.4992 183.162 50.2392V58.4666C183.162 59.6855 183.205 60.7738 183.292 61.7315C183.379 62.6892 183.51 63.5163 183.684 64.2128C183.771 64.3869 184.076 64.6046 184.598 64.8657C185.164 65.1269 185.752 65.3664 186.361 65.584C187.014 65.7581 187.471 65.8452 187.732 65.8452C187.907 65.8452 187.994 66.2587 187.994 67.0858C187.994 67.5212 187.95 67.9129 187.863 68.2612C187.689 68.2612 187.275 68.2394 186.622 68.1959C185.969 68.1524 185.077 68.0871 183.945 68C182.813 67.9129 181.812 67.8476 180.942 67.8041C180.071 67.7606 179.353 67.7388 178.787 67.7388C178.003 67.7388 176.937 67.7823 175.587 67.8694C174.238 67.9565 172.954 68.0218 171.735 68.0653C170.559 68.1524 169.754 68.2177 169.319 68.2612ZM235.263 68.653C233.522 68.653 231.629 68.5006 229.583 68.1959C227.537 67.9347 225.295 67.5212 222.857 66.9552C222.639 65.9976 222.4 64.8004 222.139 63.3639C221.921 61.9274 221.725 60.5344 221.551 59.1849C221.42 57.7919 221.355 56.7689 221.355 56.1159C221.486 55.6806 221.878 55.463 222.531 55.463C223.88 55.463 224.577 55.5936 224.62 55.8547C224.881 57.1607 225.469 58.5319 226.383 59.9685C227.297 61.3615 228.407 62.5368 229.713 63.4945C231.063 64.4522 232.477 64.931 233.958 64.931C238.267 64.931 240.422 62.5586 240.422 57.8137C240.422 56.5513 239.921 55.3977 238.92 54.3529C237.962 53.3082 236.831 52.3722 235.525 51.5451C234.262 50.718 233.174 49.9998 232.26 49.3903L230.301 48.0844C228.821 47.0832 227.428 46.0602 226.122 45.0154C224.816 43.9272 223.749 42.6865 222.922 41.2935C222.139 39.857 221.747 38.1157 221.747 36.0697C221.747 33.8496 222.422 31.8472 223.771 30.0624C225.121 28.2776 226.862 26.8629 228.995 25.8181C231.128 24.7734 233.348 24.251 235.655 24.251C236.569 24.251 237.505 24.3163 238.463 24.4469C239.464 24.5775 240.313 24.7081 241.01 24.8387C242.316 25.0998 243.426 25.361 244.34 25.6222C245.297 25.8399 246.059 25.9922 246.625 26.0793C246.843 28.2123 247.017 30.1712 247.148 31.956C247.278 33.7408 247.343 35.395 247.343 36.9186C247.169 37.3539 246.843 37.5716 246.364 37.5716C245.058 37.5716 244.383 37.4192 244.34 37.1145C244.166 35.6344 243.687 34.1979 242.903 32.8049C242.12 31.4119 241.118 30.2583 239.9 29.3441C238.681 28.3865 237.288 27.9076 235.721 27.9076C234.24 27.9076 232.978 28.3647 231.933 29.2789C230.932 30.193 230.431 31.6513 230.431 33.6538C230.431 35.4385 231.215 37.0057 232.782 38.3551C234.393 39.7046 236.461 41.1847 238.985 42.7953L242.316 44.8848C243.534 45.6249 244.688 46.452 245.776 47.3661C246.865 48.2368 247.757 49.3903 248.453 50.8269C249.15 52.2199 249.498 54.1353 249.498 56.573C249.498 58.8802 248.823 60.9479 247.474 62.7762C246.168 64.6046 244.427 66.0411 242.25 67.0858C240.117 68.1306 237.788 68.653 235.263 68.653Z" fill="black"/>
<path d="M306.879 68.2612C306.705 68.0871 306.617 67.7388 306.617 67.2164C306.617 66.3023 306.683 65.8452 306.813 65.8452C307.162 65.8452 307.662 65.7581 308.315 65.584C308.968 65.4099 309.578 65.1922 310.144 64.931C310.709 64.6699 311.036 64.4304 311.123 64.2128C311.297 63.6033 311.406 62.8851 311.449 62.058C311.537 61.2309 311.58 60.2732 311.58 59.1849V35.5474C311.58 32.1519 311.406 30.1495 311.058 29.54L310.731 28.9524C310.557 28.7782 309.991 28.6476 309.033 28.5606C308.076 28.43 306.966 28.3647 305.703 28.3647C303.919 28.3647 302.46 28.8653 301.328 29.8665C300.197 30.8242 299.326 32.4566 298.717 34.7638C298.629 34.9815 298.412 35.0903 298.064 35.0903C297.106 35.0903 296.475 34.9379 296.17 34.6332L297.411 23.9898C298.368 24.2074 299.217 24.3816 299.957 24.5122C300.697 24.6428 301.35 24.7081 301.916 24.7081C304.136 24.7081 306.509 24.7734 309.033 24.904C311.602 25.0345 313.996 25.0998 316.216 25.0998C318.436 25.0998 320.83 25.0345 323.399 24.904C325.967 24.7734 328.361 24.7081 330.581 24.7081C331.147 24.7081 331.8 24.6428 332.54 24.5122C333.28 24.3816 334.129 24.2074 335.087 23.9898L336.328 34.6985C336.023 35.0032 335.392 35.1556 334.434 35.1556C334.086 35.1556 333.868 35.0468 333.781 34.8291C332.693 30.5195 330.364 28.3647 326.794 28.3647C323.312 28.3647 321.462 28.7565 321.244 29.54C321.07 30.1495 320.939 30.933 320.852 31.8907C320.765 32.8484 320.722 34.002 320.722 35.3515V58.9237C320.722 60.012 320.765 60.9915 320.852 61.8621C320.939 62.7327 321.07 63.5163 321.244 64.2128C321.331 64.3869 321.636 64.6046 322.158 64.8657C322.724 65.1269 323.312 65.3664 323.921 65.584C324.574 65.7581 325.031 65.8452 325.292 65.8452C325.467 65.8452 325.554 66.2587 325.554 67.0858C325.554 67.5212 325.51 67.9129 325.423 68.2612C325.249 68.2612 324.835 68.2394 324.182 68.1959C323.529 68.1524 322.637 68.0871 321.505 68C320.373 67.9129 319.372 67.8476 318.502 67.8041C317.631 67.7606 316.913 67.7388 316.347 67.7388C315.563 67.7388 314.497 67.7823 313.147 67.8694C311.798 67.9565 310.514 68.0218 309.295 68.0653C308.119 68.1524 307.314 68.2177 306.879 68.2612ZM385.034 68.4571C382.901 68.4571 380.942 68.2612 379.157 67.8694C377.416 67.4341 376.023 66.9552 374.978 66.4329C373.89 65.9105 372.823 65.1269 371.779 64.0822C371.256 63.5598 370.777 63.0592 370.342 62.5803C369.907 62.1015 369.428 61.5138 368.906 60.8173C368.427 60.0773 367.796 59.1196 367.012 57.9443C366.228 56.7254 365.205 55.1147 363.943 53.1123C362.245 50.5439 361.114 49.1509 360.548 48.9333C360.461 48.8897 360.221 48.868 359.829 48.868C359.438 48.868 359.242 49.2162 359.242 49.9127V58.7931C359.242 61.1003 359.394 62.8851 359.699 64.1475C359.786 64.4957 360.156 64.8004 360.809 65.0616C361.462 65.3228 362.18 65.5187 362.964 65.6493C363.747 65.7799 364.357 65.8452 364.792 65.8452C364.966 65.8452 365.053 66.2587 365.053 67.0858C365.053 67.5212 365.01 67.9129 364.923 68.2612C362.311 68.1306 360.178 68.0218 358.523 67.9347C356.869 67.8476 355.672 67.8259 354.932 67.8694L345.399 68.2612C345.225 68.0871 345.138 67.717 345.138 67.1511C345.138 66.2805 345.225 65.8452 345.399 65.8452C345.747 65.8452 346.248 65.7799 346.901 65.6493C347.553 65.5187 348.163 65.3446 348.729 65.1269C349.295 64.8657 349.621 64.6263 349.708 64.4087C349.969 63.4074 350.1 61.4921 350.1 58.6625V33.9802C350.1 31.5425 349.969 29.8448 349.708 28.8871C349.621 28.6259 349.273 28.3647 348.664 28.1035C348.098 27.7988 347.488 27.5594 346.835 27.3852C346.182 27.1676 345.682 27.0588 345.333 27.0588C345.159 27.0588 345.072 26.667 345.072 25.8834C345.072 25.1869 345.138 24.7734 345.268 24.6428C347.271 24.7298 349.055 24.8169 350.622 24.904C352.233 24.9475 353.648 24.9692 354.867 24.9692C356.956 24.9257 358.589 24.904 359.764 24.904C360.939 24.904 361.832 24.904 362.441 24.904C363.051 24.904 363.573 24.904 364.008 24.904C365.75 24.904 367.491 25.1216 369.232 25.5569C371.017 25.9922 372.649 26.667 374.129 27.5811C375.609 28.4518 376.785 29.5836 377.655 30.9766C378.57 32.326 379.027 33.9585 379.027 35.8739C379.027 37.7892 378.635 39.574 377.851 41.2282C377.068 42.8824 376.045 44.2754 374.782 45.4072C373.563 46.539 372.301 47.3226 370.995 47.7579C370.647 47.8885 370.582 48.1279 370.799 48.4762C371.757 50.0868 372.497 51.3057 373.019 52.1328C373.542 52.9599 373.977 53.6347 374.325 54.157C374.717 54.6359 375.174 55.2453 375.697 55.9853C376.219 56.6818 376.959 57.7484 377.917 59.1849C378.657 60.2297 379.527 61.2744 380.528 62.3192C381.573 63.3204 382.683 64.1692 383.859 64.8657C385.078 65.5187 386.231 65.8452 387.319 65.8452C387.494 66.0193 387.581 66.4111 387.581 67.0205C387.581 67.5429 387.494 67.9782 387.319 68.3265C387.015 68.37 386.666 68.3918 386.275 68.3918C385.926 68.4353 385.513 68.4571 385.034 68.4571ZM361.984 45.2766H363.747C365.445 45.2766 366.751 44.5366 367.665 43.0565C368.623 41.5765 369.102 39.6176 369.102 37.1798C369.102 31.3901 367.077 28.4953 363.029 28.4953C361.505 28.4953 360.504 28.6694 360.025 29.0177C359.503 29.4094 359.242 31.5425 359.242 35.4168V42.4689C359.242 43.6877 359.481 44.4713 359.96 44.8195C360.482 45.1243 361.157 45.2766 361.984 45.2766ZM394.236 68.2612C394.062 68.0871 393.974 67.7606 393.974 67.2817C393.974 66.3676 394.018 65.9105 394.105 65.9105C394.453 65.9105 394.976 65.8017 395.672 65.584C396.369 65.3664 397.043 65.1052 397.696 64.8004C398.393 64.4522 398.828 64.1257 399.002 63.821C399.351 63.2986 399.721 62.6674 400.112 61.9274C400.504 61.1438 400.787 60.5126 400.961 60.0338L401.288 59.2502L415.718 26.0793C416.197 24.9475 417.003 24.3816 418.134 24.3816C418.787 24.3816 419.31 24.6645 419.701 25.2304L433.087 58.336C433.479 59.3373 433.849 60.2949 434.197 61.2091C434.589 62.0797 434.937 62.9068 435.242 63.6904C435.416 64.1257 435.808 64.5175 436.418 64.8657C437.027 65.1705 437.68 65.4099 438.376 65.584C439.116 65.7581 439.682 65.8452 440.074 65.8452C440.248 65.8452 440.335 66.2152 440.335 66.9552C440.335 67.6517 440.292 68.0871 440.205 68.2612L436.222 68C434.959 67.9129 433.871 67.8476 432.957 67.8041C432.043 67.717 431.303 67.6953 430.737 67.7388L420.877 68.2612C420.703 68.0871 420.616 67.63 420.616 66.89C420.616 66.1934 420.703 65.8452 420.877 65.8452C421.835 65.8452 422.814 65.6493 423.815 65.2575C424.816 64.8222 425.317 64.2563 425.317 63.5598C425.317 63.5163 425.186 63.1245 424.925 62.3845C424.708 61.6444 424.294 60.5779 423.685 59.1849L421.726 54.4182C421.552 54.2441 421.399 54.157 421.269 54.157C420.833 54.1135 420.093 54.0917 419.049 54.0917C418.004 54.0917 416.654 54.0917 415 54.0917C413.564 54.0917 412.279 54.0917 411.148 54.0917C410.059 54.0917 409.145 54.1135 408.405 54.157C408.231 54.157 408.079 54.2659 407.948 54.4835L405.793 59.4461C405.053 61.1873 404.618 62.4498 404.487 63.2333C404.4 64.0169 404.792 64.6263 405.663 65.0616C406.446 65.4534 407.121 65.6928 407.687 65.7799C408.296 65.8234 408.819 65.8452 409.254 65.8452C409.385 65.8887 409.45 66.237 409.45 66.89C409.45 67.4559 409.406 67.9129 409.319 68.2612C407.36 68.1306 405.924 68.0218 405.01 67.9347C404.139 67.8476 403.486 67.8041 403.051 67.8041C402.615 67.7606 402.137 67.7606 401.614 67.8041C401.135 67.8476 400.352 67.9129 399.264 68C398.175 68.0435 396.499 68.1306 394.236 68.2612ZM415 50.1739C415.871 50.1739 416.676 50.1739 417.416 50.1739C418.2 50.1304 418.94 50.0868 419.636 50.0433L419.832 49.7168L415.131 38.0287L410.038 49.7168C410.038 49.891 410.081 49.978 410.168 49.978C411.474 50.1086 413.085 50.1739 415 50.1739ZM468.147 68.4571C465.274 68.4571 462.575 67.8912 460.05 66.7594C457.525 65.6275 455.305 64.0822 453.39 62.1233C451.474 60.1208 449.972 57.8354 448.884 55.2671C447.796 52.6552 447.252 49.891 447.252 46.9744C447.252 43.8836 447.796 40.9888 448.884 38.2898C449.972 35.5474 451.474 33.1531 453.39 31.1072C455.348 29.0177 457.634 27.3852 460.246 26.2099C462.901 25.0345 465.752 24.4469 468.8 24.4469C471.194 24.4469 473.632 24.621 476.113 24.9692C478.594 25.274 481.141 25.731 483.753 26.3405C484.014 26.4275 484.297 27.8858 484.602 30.7154C484.776 32.326 484.906 33.5885 484.993 34.5026C485.124 35.4168 485.08 36.0697 484.863 36.4615C484.645 36.8098 484.123 36.9839 483.296 36.9839L482.251 36.788C482.033 36.0044 481.685 35.1774 481.206 34.3067C480.727 33.4361 479.987 32.5002 478.986 31.499C478.028 30.4977 476.679 29.6924 474.938 29.083C473.196 28.43 471.259 28.1035 469.126 28.1035C461.334 28.1035 457.438 33.9367 457.438 45.6031C457.438 49.2162 457.96 52.5028 459.005 55.463C460.093 58.3796 461.661 60.6867 463.706 62.3845C465.796 64.0822 468.299 64.931 471.216 64.931C474.437 64.931 477.223 63.7557 479.574 61.405C480.27 60.7085 480.793 59.9249 481.141 59.0543C481.533 58.1401 481.816 57.3348 481.99 56.6383C482.207 55.9418 482.403 55.5936 482.577 55.5936C484.362 55.5936 485.342 55.8112 485.516 56.2465C485.516 56.5513 485.407 57.2042 485.189 58.2054C485.015 59.1631 484.776 60.2297 484.471 61.405C484.21 62.5368 483.927 63.538 483.622 64.4087C483.317 65.2358 483.056 65.6928 482.839 65.7799C477.876 67.5647 472.979 68.4571 468.147 68.4571ZM494.587 68.2612C494.413 68.0871 494.326 67.7388 494.326 67.2164C494.326 66.3023 494.391 65.8452 494.521 65.8452C494.87 65.8452 495.37 65.7581 496.023 65.584C496.676 65.4099 497.286 65.1922 497.852 64.931C498.418 64.6699 498.744 64.4304 498.831 64.2128C499.005 63.6033 499.114 62.8633 499.158 61.9927C499.245 61.122 499.288 60.1208 499.288 58.989V33.9149C499.288 31.1289 499.114 29.4312 498.766 28.8218C498.635 28.5606 498.287 28.3212 497.721 28.1035C497.199 27.8423 496.655 27.6247 496.089 27.4505C495.523 27.2764 495.066 27.1893 494.717 27.1893C494.543 27.1893 494.456 26.8193 494.456 26.0793C494.456 25.2957 494.5 24.8604 494.587 24.7734L504.055 25.1651C504.49 25.2087 505.47 25.1869 506.993 25.0998C508.517 25.0128 510.585 24.904 513.196 24.7734C513.327 25.1651 513.392 25.5569 513.392 25.9487C513.392 26.7758 513.305 27.1893 513.131 27.1893C512.87 27.1893 512.413 27.2764 511.76 27.4505C511.107 27.6247 510.476 27.8423 509.866 28.1035C509.3 28.3212 508.974 28.5388 508.887 28.7565C508.582 29.8448 508.43 31.6948 508.43 34.3067V44.6237C508.43 44.9719 508.56 45.146 508.822 45.146H509.344C509.605 45.146 510.563 44.3189 512.217 42.6647C514.089 40.7494 516.004 38.7252 517.963 36.5921C519.966 34.4156 522.012 32.1302 524.101 29.7359C524.449 29.2571 524.623 28.7565 524.623 28.2341C524.623 27.9294 524.384 27.7117 523.905 27.5811C523.47 27.407 522.947 27.2764 522.338 27.1893C521.729 27.1023 521.184 27.0588 520.706 27.0588C520.531 27.0588 520.401 26.754 520.314 26.1446C520.227 25.5352 520.227 25.0781 520.314 24.7734C525.146 25.0345 528.062 25.1651 529.064 25.1651C529.586 25.1651 532.459 25.0345 537.683 24.7734C537.77 24.9475 537.792 25.361 537.748 26.014C537.748 26.667 537.683 27.0152 537.552 27.0588L537.16 27.124C536.725 27.124 536.246 27.1676 535.724 27.2546C535.245 27.2982 534.788 27.3635 534.353 27.4505C533.787 27.5811 533.025 27.8641 532.067 28.2994C531.153 28.6912 530.457 29.17 529.978 29.7359L518.747 42.1424C518.224 42.7083 518.203 43.3395 518.681 44.036L534.157 64.2128C534.636 64.7787 535.376 65.1922 536.377 65.4534C537.422 65.7146 538.205 65.8452 538.728 65.8452C538.902 65.8452 538.989 66.2587 538.989 67.0858C538.989 67.5647 538.902 67.9565 538.728 68.2612L534.614 68C533.264 67.9129 532.111 67.8476 531.153 67.8041C530.195 67.7606 529.434 67.7388 528.868 67.7388C527.692 67.7388 526.321 67.7823 524.754 67.8694C523.23 67.9565 521.511 68.0871 519.596 68.2612C519.421 68.0871 519.334 67.63 519.334 66.89C519.334 66.1934 519.421 65.8452 519.596 65.8452C520.074 65.8452 520.706 65.7146 521.489 65.4534C522.273 65.1922 522.665 64.8875 522.665 64.5393C522.665 63.1027 518.79 58.0313 511.042 49.325C510.911 49.1945 510.606 49.1292 510.127 49.1292C508.996 49.1292 508.43 49.4992 508.43 50.2392V58.4666C508.43 59.6855 508.473 60.7738 508.56 61.7315C508.647 62.6892 508.778 63.5163 508.952 64.2128C509.039 64.3869 509.344 64.6046 509.866 64.8657C510.432 65.1269 511.02 65.3664 511.629 65.584C512.282 65.7581 512.739 65.8452 513.001 65.8452C513.175 65.8452 513.262 66.2587 513.262 67.0858C513.262 67.5212 513.218 67.9129 513.131 68.2612C512.957 68.2612 512.543 68.2394 511.89 68.1959C511.238 68.1524 510.345 68.0871 509.213 68C508.082 67.9129 507.08 67.8476 506.21 67.8041C505.339 67.7606 504.621 67.7388 504.055 67.7388C503.271 67.7388 502.205 67.7823 500.855 67.8694C499.506 67.9565 498.222 68.0218 497.003 68.0653C495.827 68.1524 495.022 68.2177 494.587 68.2612ZM547.015 68.2612C546.841 68.0871 546.754 67.717 546.754 67.1511C546.754 66.2805 546.841 65.8452 547.015 65.8452C547.363 65.8452 547.864 65.7799 548.517 65.6493C549.17 65.5187 549.779 65.3446 550.345 65.1269C550.911 64.8657 551.238 64.6263 551.325 64.4087C551.586 63.4074 551.716 61.4921 551.716 58.6625V33.9802C551.716 31.5425 551.586 29.8448 551.325 28.8871C551.238 28.6259 550.889 28.3647 550.28 28.1035C549.714 27.7988 549.105 27.5594 548.452 27.3852C547.799 27.1676 547.298 27.0588 546.95 27.0588C546.776 27.0588 546.689 26.667 546.689 25.8834C546.689 25.1869 546.754 24.7734 546.884 24.6428C548.626 24.7298 550.28 24.8169 551.847 24.904C553.458 24.9475 555.003 24.9692 556.483 24.9692C558.399 24.9692 561.772 24.904 566.604 24.7734C569.042 24.7298 571.175 24.7081 573.003 24.7081C574.832 24.6645 576.355 24.6428 577.574 24.6428C577.618 24.8604 577.792 25.7746 578.096 27.3852C578.401 28.9959 578.858 31.3031 579.468 34.3067C579.25 34.5244 578.749 34.6332 577.966 34.6332C577.487 34.6332 577.182 34.4809 577.052 34.1761C576.529 33.0443 575.746 32.0431 574.701 31.1725C573.7 30.2583 572.59 29.54 571.371 29.0177C570.196 28.4518 569.042 28.1688 567.91 28.1688H565.429C562.643 28.1688 561.228 28.4518 561.185 29.0177C561.097 29.54 561.01 30.2365 560.923 31.1072C560.88 31.9343 560.858 32.9355 560.858 34.1108V44.1666C560.858 44.4278 561.794 44.5584 563.666 44.5584H567.127C569.869 44.5584 571.349 44.4713 571.567 44.2972C571.784 44.0795 571.959 43.4483 572.089 42.4036C572.176 41.7071 572.307 41.0759 572.481 40.5099C572.524 40.2052 572.851 40.0529 573.46 40.0529C574.2 40.0529 574.679 40.1617 574.897 40.3794V52.7205C574.723 52.8946 574.266 52.9817 573.526 52.9817C572.96 52.9817 572.611 52.8076 572.481 52.4593C571.959 50.7616 571.61 49.7168 571.436 49.325C571.262 49.0203 571.131 48.8897 571.044 48.9333C571.001 48.9333 570.87 48.8462 570.653 48.6721C570.043 48.3238 568.345 48.1497 565.559 48.1497C562.425 48.1497 560.858 48.3456 560.858 48.7374V58.7931C560.858 60.8391 561.032 62.3845 561.38 63.4292C561.555 64.1257 563.035 64.474 565.821 64.474H567.518C570.217 64.474 572.655 63.9081 574.832 62.7762C575.572 62.3845 576.399 61.6444 577.313 60.5561C578.271 59.4679 579.011 58.249 579.533 56.8995C579.62 56.6383 579.925 56.5077 580.447 56.5077C581.492 56.5077 582.145 56.6383 582.406 56.8995C580.229 62.9068 579.054 66.6505 578.88 68.1306C577.792 68.1306 576.355 68.1088 574.57 68.0653C572.829 68.0653 570.74 68.0435 568.302 68C565.908 67.9565 563.731 67.9129 561.772 67.8694C559.813 67.7823 558.072 67.7823 556.548 67.8694L547.015 68.2612ZM631.047 68.4571C628.914 68.4571 626.955 68.2612 625.17 67.8694C623.429 67.4341 622.036 66.9552 620.991 66.4329C619.903 65.9105 618.837 65.1269 617.792 64.0822C617.269 63.5598 616.791 63.0592 616.355 62.5803C615.92 62.1015 615.441 61.5138 614.919 60.8173C614.44 60.0773 613.809 59.1196 613.025 57.9443C612.242 56.7254 611.219 55.1147 609.956 53.1123C608.258 50.5439 607.127 49.1509 606.561 48.9333C606.474 48.8897 606.234 48.868 605.842 48.868C605.451 48.868 605.255 49.2162 605.255 49.9127V58.7931C605.255 61.1003 605.407 62.8851 605.712 64.1475C605.799 64.4957 606.169 64.8004 606.822 65.0616C607.475 65.3228 608.193 65.5187 608.977 65.6493C609.76 65.7799 610.37 65.8452 610.805 65.8452C610.979 65.8452 611.066 66.2587 611.066 67.0858C611.066 67.5212 611.023 67.9129 610.936 68.2612C608.324 68.1306 606.191 68.0218 604.537 67.9347C602.882 67.8476 601.685 67.8259 600.945 67.8694L591.412 68.2612C591.238 68.0871 591.151 67.717 591.151 67.1511C591.151 66.2805 591.238 65.8452 591.412 65.8452C591.76 65.8452 592.261 65.7799 592.914 65.6493C593.567 65.5187 594.176 65.3446 594.742 65.1269C595.308 64.8657 595.634 64.6263 595.721 64.4087C595.983 63.4074 596.113 61.4921 596.113 58.6625V33.9802C596.113 31.5425 595.983 29.8448 595.721 28.8871C595.634 28.6259 595.286 28.3647 594.677 28.1035C594.111 27.7988 593.501 27.5594 592.848 27.3852C592.195 27.1676 591.695 27.0588 591.347 27.0588C591.172 27.0588 591.085 26.667 591.085 25.8834C591.085 25.1869 591.151 24.7734 591.281 24.6428C593.284 24.7298 595.068 24.8169 596.636 24.904C598.246 24.9475 599.661 24.9692 600.88 24.9692C602.969 24.9257 604.602 24.904 605.777 24.904C606.953 24.904 607.845 24.904 608.454 24.904C609.064 24.904 609.586 24.904 610.022 24.904C611.763 24.904 613.504 25.1216 615.245 25.5569C617.03 25.9922 618.662 26.667 620.143 27.5811C621.623 28.4518 622.798 29.5836 623.669 30.9766C624.583 32.326 625.04 33.9585 625.04 35.8739C625.04 37.7892 624.648 39.574 623.864 41.2282C623.081 42.8824 622.058 44.2754 620.796 45.4072C619.577 46.539 618.314 47.3226 617.008 47.7579C616.66 47.8885 616.595 48.1279 616.812 48.4762C617.77 50.0868 618.51 51.3057 619.032 52.1328C619.555 52.9599 619.99 53.6347 620.338 54.157C620.73 54.6359 621.187 55.2453 621.71 55.9853C622.232 56.6818 622.972 57.7484 623.93 59.1849C624.67 60.2297 625.54 61.2744 626.542 62.3192C627.586 63.3204 628.696 64.1692 629.872 64.8657C631.091 65.5187 632.244 65.8452 633.333 65.8452C633.507 66.0193 633.594 66.4111 633.594 67.0205C633.594 67.5429 633.507 67.9782 633.333 68.3265C633.028 68.37 632.68 68.3918 632.288 68.3918C631.94 68.4353 631.526 68.4571 631.047 68.4571ZM607.997 45.2766H609.76C611.458 45.2766 612.764 44.5366 613.678 43.0565C614.636 41.5765 615.115 39.6176 615.115 37.1798C615.115 31.3901 613.09 28.4953 609.042 28.4953C607.518 28.4953 606.517 28.6694 606.038 29.0177C605.516 29.4094 605.255 31.5425 605.255 35.4168V42.4689C605.255 43.6877 605.494 44.4713 605.973 44.8195C606.495 45.1243 607.17 45.2766 607.997 45.2766Z" fill="#BD9AA7"/>
<circle cx="262.383" cy="62.5061" r="8.35802" fill="#B4DC7F"/>
</svg>
