<svg width="111" height="16" viewBox="0 0 111 16" fill="none" xmlns="http://www.w3.org/2000/svg">
<path d="M0.363281 12.0469C0.332031 12.0156 0.316406 11.9492 0.316406 11.8477C0.316406 11.6914 0.332031 11.6133 0.363281 11.6133C0.425781 11.6133 0.515625 11.6016 0.632812 11.5781C0.75 11.5547 0.859375 11.5234 0.960938 11.4844C1.0625 11.4375 1.12109 11.3945 1.13672 11.3555C1.18359 11.1758 1.20703 10.832 1.20703 10.3242V5.89453C1.20703 5.45703 1.18359 5.15234 1.13672 4.98047C1.12109 4.93359 1.05859 4.88672 0.949219 4.83984C0.847656 4.78516 0.738281 4.74219 0.621094 4.71094C0.503906 4.67188 0.414062 4.65234 0.351562 4.65234C0.320312 4.65234 0.304688 4.58203 0.304688 4.44141C0.304688 4.31641 0.316406 4.24219 0.339844 4.21875C0.652344 4.23438 0.949219 4.25 1.23047 4.26562C1.51953 4.27344 1.79688 4.27734 2.0625 4.27734L3.83203 4.25391C4.12109 4.25391 4.41406 4.29297 4.71094 4.37109C5.00781 4.44141 5.29688 4.55469 5.57812 4.71094C5.85156 4.86719 6.07422 5.08594 6.24609 5.36719C6.41797 5.64844 6.50391 5.97266 6.50391 6.33984C6.50391 6.60547 6.44531 6.84375 6.32812 7.05469C6.21875 7.26562 6.08984 7.44141 5.94141 7.58203C5.79297 7.71484 5.65625 7.80469 5.53125 7.85156C5.46875 7.875 5.44922 7.89844 5.47266 7.92188C5.66016 7.95312 5.85156 8.05078 6.04688 8.21484C6.25 8.37891 6.42188 8.59766 6.5625 8.87109C6.70312 9.13672 6.77344 9.44922 6.77344 9.80859C6.77344 10.2539 6.64844 10.6445 6.39844 10.9805C6.14844 11.3164 5.80078 11.5742 5.35547 11.7539C4.91016 11.9258 4.39062 12.0078 3.79688 12L2.07422 11.9766C1.83984 11.9766 1.57812 11.9844 1.28906 12C1.00781 12.0078 0.78125 12.0156 0.609375 12.0234L0.363281 12.0469ZM3.45703 7.65234C3.76172 7.65234 3.98438 7.61719 4.125 7.54688C4.25 7.48438 4.33984 7.42578 4.39453 7.37109C4.45703 7.31641 4.52344 7.20312 4.59375 7.03125C4.67188 6.85156 4.71094 6.625 4.71094 6.35156C4.71094 5.38281 4.35156 4.89844 3.63281 4.89844C3.27344 4.89844 3.04688 4.91406 2.95312 4.94531C2.88281 4.95312 2.84766 5 2.84766 5.08594V7.48828C2.84766 7.59766 3.05078 7.65234 3.45703 7.65234ZM3.80859 11.3555C4.61328 11.3555 5.01562 10.8828 5.01562 9.9375C5.01562 8.85156 4.53516 8.30859 3.57422 8.30859C3.33203 8.30859 3.13281 8.32812 2.97656 8.36719C2.89062 8.40625 2.84766 8.44141 2.84766 8.47266V11.1094C2.84766 11.1875 2.875 11.2422 2.92969 11.2734C3.00781 11.3281 3.30078 11.3555 3.80859 11.3555ZM9.51469 10.957C8.7725 10.1758 8.40141 9.24219 8.40141 8.15625C8.40141 7.60938 8.49906 7.09766 8.69438 6.62109C8.88969 6.13672 9.15922 5.71484 9.50297 5.35547C9.85453 4.98828 10.2569 4.70312 10.71 4.5C11.1631 4.28906 11.6475 4.18359 12.1631 4.18359C12.6788 4.18359 13.1631 4.28906 13.6163 4.5C14.0772 4.70312 14.4795 4.98828 14.8233 5.35547C15.167 5.71484 15.4366 6.13672 15.6319 6.62109C15.835 7.09766 15.9366 7.60938 15.9366 8.15625C15.9366 9.24219 15.5655 10.1758 14.8233 10.957C14.3155 11.4883 13.7452 11.8398 13.1123 12.0117C12.4795 12.1914 11.8467 12.1914 11.2139 12.0117C10.5889 11.8398 10.0225 11.4883 9.51469 10.957ZM12.3506 11.4609C12.7413 11.4609 13.0655 11.3242 13.3233 11.0508C13.5889 10.7773 13.7842 10.4102 13.9092 9.94922C14.042 9.48047 14.1084 8.95703 14.1084 8.37891C14.1084 7.94922 14.0733 7.53906 14.003 7.14844C13.9405 6.75781 13.835 6.38281 13.6866 6.02344C13.5381 5.65625 13.3194 5.36719 13.0303 5.15625C12.7413 4.94531 12.3936 4.83984 11.9873 4.83984C11.5733 4.83984 11.2295 4.98828 10.9561 5.28516C10.6827 5.58984 10.4913 5.96094 10.3819 6.39844C10.2803 6.83594 10.2295 7.33594 10.2295 7.89844C10.2295 8.69531 10.3819 9.46484 10.6866 10.207C10.8428 10.582 11.0616 10.8867 11.3428 11.1211C11.6319 11.3477 11.9678 11.4609 12.3506 11.4609ZM18.713 10.957C17.9708 10.1758 17.5997 9.24219 17.5997 8.15625C17.5997 7.60938 17.6973 7.09766 17.8927 6.62109C18.088 6.13672 18.3575 5.71484 18.7013 5.35547C19.0528 4.98828 19.4552 4.70312 19.9083 4.5C20.3614 4.28906 20.8458 4.18359 21.3614 4.18359C21.877 4.18359 22.3614 4.28906 22.8145 4.5C23.2755 4.70312 23.6778 4.98828 24.0216 5.35547C24.3653 5.71484 24.6348 6.13672 24.8302 6.62109C25.0333 7.09766 25.1348 7.60938 25.1348 8.15625C25.1348 9.24219 24.7638 10.1758 24.0216 10.957C23.5138 11.4883 22.9434 11.8398 22.3106 12.0117C21.6778 12.1914 21.045 12.1914 20.4122 12.0117C19.7872 11.8398 19.2208 11.4883 18.713 10.957ZM21.5489 11.4609C21.9395 11.4609 22.2638 11.3242 22.5216 11.0508C22.7872 10.7773 22.9825 10.4102 23.1075 9.94922C23.2403 9.48047 23.3067 8.95703 23.3067 8.37891C23.3067 7.94922 23.2716 7.53906 23.2013 7.14844C23.1388 6.75781 23.0333 6.38281 22.8848 6.02344C22.7364 5.65625 22.5177 5.36719 22.2286 5.15625C21.9395 4.94531 21.5919 4.83984 21.1856 4.83984C20.7716 4.83984 20.4278 4.98828 20.1544 5.28516C19.8809 5.58984 19.6895 5.96094 19.5802 6.39844C19.4786 6.83594 19.4278 7.33594 19.4278 7.89844C19.4278 8.69531 19.5802 9.46484 19.8848 10.207C20.0411 10.582 20.2598 10.8867 20.5411 11.1211C20.8302 11.3477 21.1661 11.4609 21.5489 11.4609ZM26.798 12.0469C26.7667 12.0156 26.7511 11.9531 26.7511 11.8594C26.7511 11.6953 26.7628 11.6133 26.7862 11.6133C26.8487 11.6133 26.9386 11.5977 27.0558 11.5664C27.173 11.5352 27.2823 11.4961 27.3839 11.4492C27.4855 11.4023 27.5441 11.3594 27.5597 11.3203C27.5909 11.2109 27.6105 11.0781 27.6183 10.9219C27.6339 10.7656 27.6417 10.5859 27.6417 10.3828V5.88281C27.6417 5.38281 27.6105 5.07812 27.548 4.96875C27.5245 4.92188 27.462 4.87891 27.3605 4.83984C27.2667 4.79297 27.1691 4.75391 27.0675 4.72266C26.9659 4.69141 26.8839 4.67578 26.8214 4.67578C26.7902 4.67578 26.7745 4.60938 26.7745 4.47656C26.7745 4.33594 26.7823 4.25781 26.798 4.24219L28.4972 4.3125C28.5753 4.32031 28.7511 4.31641 29.0245 4.30078C29.298 4.28516 29.6691 4.26562 30.1378 4.24219C30.1612 4.3125 30.173 4.38281 30.173 4.45312C30.173 4.60156 30.1573 4.67578 30.1261 4.67578C30.0792 4.67578 29.9972 4.69141 29.88 4.72266C29.7628 4.75391 29.6495 4.79297 29.5402 4.83984C29.4386 4.87891 29.38 4.91797 29.3644 4.95703C29.3097 5.15234 29.2823 5.48438 29.2823 5.95312V7.80469C29.2823 7.86719 29.3058 7.89844 29.3527 7.89844H29.4464C29.4933 7.89844 29.6652 7.75 29.962 7.45312C30.298 7.10938 30.6417 6.74609 30.9933 6.36328C31.3527 5.97266 31.7198 5.5625 32.0948 5.13281C32.1573 5.04688 32.1886 4.95703 32.1886 4.86328C32.1886 4.80859 32.1456 4.76953 32.0597 4.74609C31.9816 4.71484 31.8878 4.69141 31.7784 4.67578C31.6691 4.66016 31.5714 4.65234 31.4855 4.65234C31.4542 4.65234 31.4308 4.59766 31.4152 4.48828C31.3995 4.37891 31.3995 4.29688 31.4152 4.24219C32.2823 4.28906 32.8058 4.3125 32.9855 4.3125C33.0792 4.3125 33.5948 4.28906 34.5323 4.24219C34.548 4.27344 34.5519 4.34766 34.5441 4.46484C34.5441 4.58203 34.5323 4.64453 34.5089 4.65234L34.4386 4.66406C34.3605 4.66406 34.2745 4.67188 34.1808 4.6875C34.0948 4.69531 34.0128 4.70703 33.9347 4.72266C33.8331 4.74609 33.6964 4.79688 33.5245 4.875C33.3605 4.94531 33.2355 5.03125 33.1495 5.13281L31.1339 7.35938C31.0402 7.46094 31.0362 7.57422 31.1222 7.69922L33.8995 11.3203C33.9855 11.4219 34.1183 11.4961 34.298 11.543C34.4855 11.5898 34.6261 11.6133 34.7198 11.6133C34.7511 11.6133 34.7667 11.6875 34.7667 11.8359C34.7667 11.9219 34.7511 11.9922 34.7198 12.0469L33.9816 12C33.7394 11.9844 33.5323 11.9727 33.3605 11.9648C33.1886 11.957 33.0519 11.9531 32.9503 11.9531C32.7394 11.9531 32.4933 11.9609 32.212 11.9766C31.9386 11.9922 31.63 12.0156 31.2862 12.0469C31.255 12.0156 31.2394 11.9336 31.2394 11.8008C31.2394 11.6758 31.255 11.6133 31.2862 11.6133C31.3722 11.6133 31.4855 11.5898 31.6261 11.543C31.7667 11.4961 31.837 11.4414 31.837 11.3789C31.837 11.1211 31.1417 10.2109 29.7511 8.64844C29.7277 8.625 29.673 8.61328 29.587 8.61328C29.3839 8.61328 29.2823 8.67969 29.2823 8.8125V10.2891C29.2823 10.5078 29.2902 10.7031 29.3058 10.875C29.3214 11.0469 29.3448 11.1953 29.3761 11.3203C29.3917 11.3516 29.4464 11.3906 29.5402 11.4375C29.6417 11.4844 29.7472 11.5273 29.8566 11.5664C29.9737 11.5977 30.0558 11.6133 30.1027 11.6133C30.1339 11.6133 30.1495 11.6875 30.1495 11.8359C30.1495 11.9141 30.1417 11.9844 30.1261 12.0469C30.0948 12.0469 30.0206 12.043 29.9034 12.0352C29.7862 12.0273 29.6261 12.0156 29.423 12C29.2198 11.9844 29.0402 11.9727 28.8839 11.9648C28.7277 11.957 28.5987 11.9531 28.4972 11.9531C28.3566 11.9531 28.1652 11.9609 27.923 11.9766C27.6808 11.9922 27.4503 12.0039 27.2316 12.0117C27.0206 12.0273 26.8761 12.0391 26.798 12.0469ZM38.633 12.1172C38.3205 12.1172 37.9806 12.0898 37.6134 12.0352C37.2463 11.9883 36.8439 11.9141 36.4064 11.8125C36.3673 11.6406 36.3244 11.4258 36.2775 11.168C36.2384 10.9102 36.2033 10.6602 36.172 10.418C36.1486 10.168 36.1369 9.98438 36.1369 9.86719C36.1603 9.78906 36.2306 9.75 36.3478 9.75C36.59 9.75 36.715 9.77344 36.7228 9.82031C36.7697 10.0547 36.8752 10.3008 37.0392 10.5586C37.2033 10.8086 37.4025 11.0195 37.6369 11.1914C37.8791 11.3633 38.133 11.4492 38.3986 11.4492C39.172 11.4492 39.5588 11.0234 39.5588 10.1719C39.5588 9.94531 39.4689 9.73828 39.2892 9.55078C39.1173 9.36328 38.9142 9.19531 38.6798 9.04688C38.4533 8.89844 38.258 8.76953 38.0939 8.66016L37.7423 8.42578C37.4767 8.24609 37.2267 8.0625 36.9923 7.875C36.758 7.67969 36.5666 7.45703 36.4181 7.20703C36.2775 6.94922 36.2072 6.63672 36.2072 6.26953C36.2072 5.87109 36.3283 5.51172 36.5705 5.19141C36.8127 4.87109 37.1252 4.61719 37.508 4.42969C37.8908 4.24219 38.2892 4.14844 38.7033 4.14844C38.8673 4.14844 39.0353 4.16016 39.2072 4.18359C39.3869 4.20703 39.5392 4.23047 39.6642 4.25391C39.8986 4.30078 40.0978 4.34766 40.2619 4.39453C40.4338 4.43359 40.5705 4.46094 40.672 4.47656C40.7111 4.85938 40.7423 5.21094 40.7658 5.53125C40.7892 5.85156 40.8009 6.14844 40.8009 6.42188C40.7697 6.5 40.7111 6.53906 40.6252 6.53906C40.3908 6.53906 40.2697 6.51172 40.2619 6.45703C40.2306 6.19141 40.1447 5.93359 40.0041 5.68359C39.8634 5.43359 39.6838 5.22656 39.465 5.0625C39.2463 4.89062 38.9963 4.80469 38.715 4.80469C38.4494 4.80469 38.2228 4.88672 38.0353 5.05078C37.8556 5.21484 37.7658 5.47656 37.7658 5.83594C37.7658 6.15625 37.9064 6.4375 38.1877 6.67969C38.4767 6.92188 38.8478 7.1875 39.3009 7.47656L39.8986 7.85156C40.1173 7.98438 40.3244 8.13281 40.5197 8.29688C40.715 8.45312 40.8752 8.66016 41.0002 8.91797C41.1252 9.16797 41.1877 9.51172 41.1877 9.94922C41.1877 10.3633 41.0666 10.7344 40.8244 11.0625C40.59 11.3906 40.2775 11.6484 39.8869 11.8359C39.5041 12.0234 39.0861 12.1172 38.633 12.1172Z" fill="black"/>
<path d="M51.4856 12.0469C51.4544 12.0156 51.4388 11.9531 51.4388 11.8594C51.4388 11.6953 51.4505 11.6133 51.4739 11.6133C51.5364 11.6133 51.6263 11.5977 51.7434 11.5664C51.8606 11.5352 51.97 11.4961 52.0716 11.4492C52.1731 11.4023 52.2317 11.3594 52.2473 11.3203C52.2786 11.2109 52.2981 11.082 52.3059 10.9336C52.3216 10.7852 52.3294 10.6133 52.3294 10.418V6.17578C52.3294 5.56641 52.2981 5.20703 52.2356 5.09766L52.177 4.99219C52.1458 4.96094 52.0442 4.9375 51.8723 4.92188C51.7005 4.89844 51.5013 4.88672 51.2747 4.88672C50.9544 4.88672 50.6927 4.97656 50.4895 5.15625C50.2864 5.32812 50.1302 5.62109 50.0208 6.03516C50.0052 6.07422 49.9661 6.09375 49.9036 6.09375C49.7317 6.09375 49.6184 6.06641 49.5638 6.01172L49.7864 4.10156C49.9583 4.14062 50.1106 4.17188 50.2434 4.19531C50.3763 4.21875 50.4934 4.23047 50.595 4.23047C50.9934 4.23047 51.4192 4.24219 51.8723 4.26562C52.3333 4.28906 52.763 4.30078 53.1614 4.30078C53.5598 4.30078 53.9895 4.28906 54.4505 4.26562C54.9114 4.24219 55.3411 4.23047 55.7395 4.23047C55.8411 4.23047 55.9583 4.21875 56.0911 4.19531C56.2239 4.17188 56.3763 4.14062 56.5481 4.10156L56.7708 6.02344C56.7161 6.07812 56.6028 6.10547 56.4309 6.10547C56.3684 6.10547 56.3294 6.08594 56.3138 6.04688C56.1184 5.27344 55.7005 4.88672 55.0598 4.88672C54.4348 4.88672 54.1028 4.95703 54.0638 5.09766C54.0325 5.20703 54.0091 5.34766 53.9934 5.51953C53.9778 5.69141 53.97 5.89844 53.97 6.14062V10.3711C53.97 10.5664 53.9778 10.7422 53.9934 10.8984C54.0091 11.0547 54.0325 11.1953 54.0638 11.3203C54.0794 11.3516 54.1341 11.3906 54.2278 11.4375C54.3294 11.4844 54.4348 11.5273 54.5442 11.5664C54.6614 11.5977 54.7434 11.6133 54.7903 11.6133C54.8216 11.6133 54.8372 11.6875 54.8372 11.8359C54.8372 11.9141 54.8294 11.9844 54.8138 12.0469C54.7825 12.0469 54.7083 12.043 54.5911 12.0352C54.4739 12.0273 54.3138 12.0156 54.1106 12C53.9075 11.9844 53.7278 11.9727 53.5716 11.9648C53.4153 11.957 53.2864 11.9531 53.1848 11.9531C53.0442 11.9531 52.8528 11.9609 52.6106 11.9766C52.3684 11.9922 52.138 12.0039 51.9192 12.0117C51.7083 12.0273 51.5638 12.0391 51.4856 12.0469ZM65.512 12.082C65.1292 12.082 64.7777 12.0469 64.4573 11.9766C64.1448 11.8984 63.8948 11.8125 63.7073 11.7188C63.512 11.625 63.3206 11.4844 63.1331 11.2969C63.0394 11.2031 62.9534 11.1133 62.8753 11.0273C62.7972 10.9414 62.7113 10.8359 62.6175 10.7109C62.5316 10.5781 62.4183 10.4062 62.2777 10.1953C62.137 9.97656 61.9534 9.6875 61.7269 9.32812C61.4222 8.86719 61.2191 8.61719 61.1175 8.57812C61.1019 8.57031 61.0589 8.56641 60.9886 8.56641C60.9183 8.56641 60.8831 8.62891 60.8831 8.75391V10.3477C60.8831 10.7617 60.9105 11.082 60.9652 11.3086C60.9808 11.3711 61.0472 11.4258 61.1644 11.4727C61.2816 11.5195 61.4105 11.5547 61.5511 11.5781C61.6917 11.6016 61.8011 11.6133 61.8792 11.6133C61.9105 11.6133 61.9261 11.6875 61.9261 11.8359C61.9261 11.9141 61.9183 11.9844 61.9027 12.0469C61.4339 12.0234 61.0511 12.0039 60.7542 11.9883C60.4573 11.9727 60.2425 11.9688 60.1097 11.9766L58.3988 12.0469C58.3675 12.0156 58.3519 11.9492 58.3519 11.8477C58.3519 11.6914 58.3675 11.6133 58.3988 11.6133C58.4613 11.6133 58.5511 11.6016 58.6683 11.5781C58.7855 11.5547 58.8948 11.5234 58.9964 11.4844C59.098 11.4375 59.1566 11.3945 59.1722 11.3555C59.2191 11.1758 59.2425 10.832 59.2425 10.3242V5.89453C59.2425 5.45703 59.2191 5.15234 59.1722 4.98047C59.1566 4.93359 59.0941 4.88672 58.9847 4.83984C58.8831 4.78516 58.7738 4.74219 58.6566 4.71094C58.5394 4.67188 58.4495 4.65234 58.387 4.65234C58.3558 4.65234 58.3402 4.58203 58.3402 4.44141C58.3402 4.31641 58.3519 4.24219 58.3753 4.21875C58.7347 4.23438 59.055 4.25 59.3363 4.26562C59.6253 4.27344 59.8792 4.27734 60.098 4.27734C60.473 4.26953 60.7659 4.26562 60.9769 4.26562C61.1878 4.26562 61.348 4.26562 61.4573 4.26562C61.5667 4.26562 61.6605 4.26562 61.7386 4.26562C62.0511 4.26562 62.3636 4.30469 62.6761 4.38281C62.9964 4.46094 63.2894 4.58203 63.555 4.74609C63.8206 4.90234 64.0316 5.10547 64.1878 5.35547C64.3519 5.59766 64.4339 5.89062 64.4339 6.23438C64.4339 6.57812 64.3636 6.89844 64.223 7.19531C64.0823 7.49219 63.8988 7.74219 63.6722 7.94531C63.4534 8.14844 63.2269 8.28906 62.9925 8.36719C62.93 8.39062 62.9183 8.43359 62.9573 8.49609C63.1292 8.78516 63.262 9.00391 63.3558 9.15234C63.4495 9.30078 63.5277 9.42188 63.5902 9.51562C63.6605 9.60156 63.7425 9.71094 63.8363 9.84375C63.93 9.96875 64.0628 10.1602 64.2347 10.418C64.3675 10.6055 64.5238 10.793 64.7034 10.9805C64.8909 11.1602 65.0902 11.3125 65.3011 11.4375C65.5198 11.5547 65.7269 11.6133 65.9222 11.6133C65.9534 11.6445 65.9691 11.7148 65.9691 11.8242C65.9691 11.918 65.9534 11.9961 65.9222 12.0586C65.8675 12.0664 65.805 12.0703 65.7347 12.0703C65.6722 12.0781 65.598 12.082 65.512 12.082ZM61.3753 7.92188H61.6917C61.9964 7.92188 62.2308 7.78906 62.3948 7.52344C62.5667 7.25781 62.6527 6.90625 62.6527 6.46875C62.6527 5.42969 62.2894 4.91016 61.5628 4.91016C61.2894 4.91016 61.1097 4.94141 61.0238 5.00391C60.93 5.07422 60.8831 5.45703 60.8831 6.15234V7.41797C60.8831 7.63672 60.9261 7.77734 61.012 7.83984C61.1058 7.89453 61.2269 7.92188 61.3753 7.92188ZM67.1634 12.0469C67.1322 12.0156 67.1166 11.957 67.1166 11.8711C67.1166 11.707 67.1244 11.625 67.14 11.625C67.2025 11.625 67.2962 11.6055 67.4212 11.5664C67.5462 11.5273 67.6673 11.4805 67.7845 11.4258C67.9095 11.3633 67.9877 11.3047 68.0189 11.25C68.0814 11.1562 68.1478 11.043 68.2181 10.9102C68.2884 10.7695 68.3392 10.6562 68.3705 10.5703L68.4291 10.4297L71.0189 4.47656C71.1048 4.27344 71.2494 4.17188 71.4525 4.17188C71.5697 4.17188 71.6634 4.22266 71.7337 4.32422L74.1361 10.2656C74.2064 10.4453 74.2728 10.6172 74.3353 10.7812C74.4056 10.9375 74.4681 11.0859 74.5228 11.2266C74.5541 11.3047 74.6244 11.375 74.7337 11.4375C74.8431 11.4922 74.9603 11.5352 75.0853 11.5664C75.2181 11.5977 75.3197 11.6133 75.39 11.6133C75.4212 11.6133 75.4369 11.6797 75.4369 11.8125C75.4369 11.9375 75.4291 12.0156 75.4134 12.0469L74.6986 12C74.472 11.9844 74.2767 11.9727 74.1127 11.9648C73.9486 11.9492 73.8158 11.9453 73.7142 11.9531L71.9447 12.0469C71.9134 12.0156 71.8978 11.9336 71.8978 11.8008C71.8978 11.6758 71.9134 11.6133 71.9447 11.6133C72.1166 11.6133 72.2923 11.5781 72.472 11.5078C72.6517 11.4297 72.7416 11.3281 72.7416 11.2031C72.7416 11.1953 72.7181 11.125 72.6712 10.9922C72.6322 10.8594 72.558 10.668 72.4486 10.418L72.097 9.5625C72.0658 9.53125 72.0384 9.51562 72.015 9.51562C71.9369 9.50781 71.8041 9.50391 71.6166 9.50391C71.4291 9.50391 71.1869 9.50391 70.89 9.50391C70.6322 9.50391 70.4017 9.50391 70.1986 9.50391C70.0033 9.50391 69.8392 9.50781 69.7064 9.51562C69.6752 9.51562 69.6478 9.53516 69.6244 9.57422L69.2377 10.4648C69.1048 10.7773 69.0267 11.0039 69.0033 11.1445C68.9877 11.2852 69.058 11.3945 69.2142 11.4727C69.3548 11.543 69.4759 11.5859 69.5775 11.6016C69.6869 11.6094 69.7806 11.6133 69.8587 11.6133C69.8822 11.6211 69.8939 11.6836 69.8939 11.8008C69.8939 11.9023 69.8861 11.9844 69.8705 12.0469C69.5189 12.0234 69.2611 12.0039 69.097 11.9883C68.9408 11.9727 68.8236 11.9648 68.7455 11.9648C68.6673 11.957 68.5814 11.957 68.4877 11.9648C68.4017 11.9727 68.2611 11.9844 68.0658 12C67.8705 12.0078 67.5697 12.0234 67.1634 12.0469ZM70.89 8.80078C71.0462 8.80078 71.1908 8.80078 71.3236 8.80078C71.4642 8.79297 71.597 8.78516 71.722 8.77734L71.7572 8.71875L70.9134 6.62109L69.9994 8.71875C69.9994 8.75 70.0072 8.76562 70.0228 8.76562C70.2572 8.78906 70.5462 8.80078 70.89 8.80078ZM80.4281 12.082C79.9125 12.082 79.4281 11.9805 78.975 11.7773C78.5219 11.5742 78.1234 11.2969 77.7797 10.9453C77.4359 10.5859 77.1664 10.1758 76.9711 9.71484C76.7758 9.24609 76.6781 8.75 76.6781 8.22656C76.6781 7.67188 76.7758 7.15234 76.9711 6.66797C77.1664 6.17578 77.4359 5.74609 77.7797 5.37891C78.1312 5.00391 78.5414 4.71094 79.0102 4.5C79.4867 4.28906 79.9984 4.18359 80.5453 4.18359C80.975 4.18359 81.4125 4.21484 81.8578 4.27734C82.3031 4.33203 82.7602 4.41406 83.2289 4.52344C83.2758 4.53906 83.3266 4.80078 83.3812 5.30859C83.4125 5.59766 83.4359 5.82422 83.4516 5.98828C83.475 6.15234 83.4672 6.26953 83.4281 6.33984C83.3891 6.40234 83.2953 6.43359 83.1469 6.43359L82.9594 6.39844C82.9203 6.25781 82.8578 6.10938 82.7719 5.95312C82.6859 5.79688 82.5531 5.62891 82.3734 5.44922C82.2016 5.26953 81.9594 5.125 81.6469 5.01562C81.3344 4.89844 80.9867 4.83984 80.6039 4.83984C79.2055 4.83984 78.5062 5.88672 78.5062 7.98047C78.5062 8.62891 78.6 9.21875 78.7875 9.75C78.9828 10.2734 79.2641 10.6875 79.6312 10.9922C80.0062 11.2969 80.4555 11.4492 80.9789 11.4492C81.557 11.4492 82.057 11.2383 82.4789 10.8164C82.6039 10.6914 82.6977 10.5508 82.7602 10.3945C82.8305 10.2305 82.8812 10.0859 82.9125 9.96094C82.9516 9.83594 82.9867 9.77344 83.018 9.77344C83.3383 9.77344 83.5141 9.8125 83.5453 9.89062C83.5453 9.94531 83.5258 10.0625 83.4867 10.2422C83.4555 10.4141 83.4125 10.6055 83.3578 10.8164C83.3109 11.0195 83.2602 11.1992 83.2055 11.3555C83.1508 11.5039 83.1039 11.5859 83.0648 11.6016C82.1742 11.9219 81.2953 12.082 80.4281 12.082ZM85.1733 12.0469C85.142 12.0156 85.1264 11.9531 85.1264 11.8594C85.1264 11.6953 85.1381 11.6133 85.1616 11.6133C85.2241 11.6133 85.3139 11.5977 85.4311 11.5664C85.5483 11.5352 85.6577 11.4961 85.7592 11.4492C85.8608 11.4023 85.9194 11.3594 85.935 11.3203C85.9662 11.2109 85.9858 11.0781 85.9936 10.9219C86.0092 10.7656 86.017 10.5859 86.017 10.3828V5.88281C86.017 5.38281 85.9858 5.07812 85.9233 4.96875C85.8998 4.92188 85.8373 4.87891 85.7358 4.83984C85.642 4.79297 85.5444 4.75391 85.4428 4.72266C85.3412 4.69141 85.2592 4.67578 85.1967 4.67578C85.1655 4.67578 85.1498 4.60938 85.1498 4.47656C85.1498 4.33594 85.1577 4.25781 85.1733 4.24219L86.8725 4.3125C86.9506 4.32031 87.1264 4.31641 87.3998 4.30078C87.6733 4.28516 88.0444 4.26562 88.5131 4.24219C88.5366 4.3125 88.5483 4.38281 88.5483 4.45312C88.5483 4.60156 88.5327 4.67578 88.5014 4.67578C88.4545 4.67578 88.3725 4.69141 88.2553 4.72266C88.1381 4.75391 88.0248 4.79297 87.9155 4.83984C87.8139 4.87891 87.7553 4.91797 87.7397 4.95703C87.685 5.15234 87.6577 5.48438 87.6577 5.95312V7.80469C87.6577 7.86719 87.6811 7.89844 87.728 7.89844H87.8217C87.8686 7.89844 88.0405 7.75 88.3373 7.45312C88.6733 7.10938 89.017 6.74609 89.3686 6.36328C89.728 5.97266 90.0952 5.5625 90.4702 5.13281C90.5327 5.04688 90.5639 4.95703 90.5639 4.86328C90.5639 4.80859 90.5209 4.76953 90.435 4.74609C90.3569 4.71484 90.2631 4.69141 90.1537 4.67578C90.0444 4.66016 89.9467 4.65234 89.8608 4.65234C89.8295 4.65234 89.8061 4.59766 89.7905 4.48828C89.7748 4.37891 89.7748 4.29688 89.7905 4.24219C90.6577 4.28906 91.1811 4.3125 91.3608 4.3125C91.4545 4.3125 91.9702 4.28906 92.9077 4.24219C92.9233 4.27344 92.9272 4.34766 92.9194 4.46484C92.9194 4.58203 92.9077 4.64453 92.8842 4.65234L92.8139 4.66406C92.7358 4.66406 92.6498 4.67188 92.5561 4.6875C92.4702 4.69531 92.3881 4.70703 92.31 4.72266C92.2084 4.74609 92.0717 4.79688 91.8998 4.875C91.7358 4.94531 91.6108 5.03125 91.5248 5.13281L89.5092 7.35938C89.4155 7.46094 89.4116 7.57422 89.4975 7.69922L92.2748 11.3203C92.3608 11.4219 92.4936 11.4961 92.6733 11.543C92.8608 11.5898 93.0014 11.6133 93.0952 11.6133C93.1264 11.6133 93.142 11.6875 93.142 11.8359C93.142 11.9219 93.1264 11.9922 93.0952 12.0469L92.3569 12C92.1147 11.9844 91.9077 11.9727 91.7358 11.9648C91.5639 11.957 91.4272 11.9531 91.3256 11.9531C91.1147 11.9531 90.8686 11.9609 90.5873 11.9766C90.3139 11.9922 90.0053 12.0156 89.6616 12.0469C89.6303 12.0156 89.6147 11.9336 89.6147 11.8008C89.6147 11.6758 89.6303 11.6133 89.6616 11.6133C89.7475 11.6133 89.8608 11.5898 90.0014 11.543C90.142 11.4961 90.2123 11.4414 90.2123 11.3789C90.2123 11.1211 89.517 10.2109 88.1264 8.64844C88.103 8.625 88.0483 8.61328 87.9623 8.61328C87.7592 8.61328 87.6577 8.67969 87.6577 8.8125V10.2891C87.6577 10.5078 87.6655 10.7031 87.6811 10.875C87.6967 11.0469 87.7202 11.1953 87.7514 11.3203C87.767 11.3516 87.8217 11.3906 87.9155 11.4375C88.017 11.4844 88.1225 11.5273 88.2319 11.5664C88.3491 11.5977 88.4311 11.6133 88.478 11.6133C88.5092 11.6133 88.5248 11.6875 88.5248 11.8359C88.5248 11.9141 88.517 11.9844 88.5014 12.0469C88.4702 12.0469 88.3959 12.043 88.2787 12.0352C88.1616 12.0273 88.0014 12.0156 87.7983 12C87.5952 11.9844 87.4155 11.9727 87.2592 11.9648C87.103 11.957 86.9741 11.9531 86.8725 11.9531C86.7319 11.9531 86.5405 11.9609 86.2983 11.9766C86.0561 11.9922 85.8256 12.0039 85.6069 12.0117C85.3959 12.0273 85.2514 12.0391 85.1733 12.0469ZM94.5825 12.0469C94.5512 12.0156 94.5356 11.9492 94.5356 11.8477C94.5356 11.6914 94.5512 11.6133 94.5825 11.6133C94.645 11.6133 94.7348 11.6016 94.852 11.5781C94.9692 11.5547 95.0786 11.5234 95.1802 11.4844C95.2817 11.4375 95.3403 11.3945 95.3559 11.3555C95.4028 11.1758 95.4262 10.832 95.4262 10.3242V5.89453C95.4262 5.45703 95.4028 5.15234 95.3559 4.98047C95.3403 4.93359 95.2778 4.88672 95.1684 4.83984C95.0669 4.78516 94.9575 4.74219 94.8403 4.71094C94.7231 4.67188 94.6333 4.65234 94.5708 4.65234C94.5395 4.65234 94.5239 4.58203 94.5239 4.44141C94.5239 4.31641 94.5356 4.24219 94.5591 4.21875C94.8716 4.23438 95.1684 4.25 95.4497 4.26562C95.7387 4.27344 96.0161 4.27734 96.2817 4.27734C96.6255 4.27734 97.2309 4.26562 98.0981 4.24219C98.5356 4.23438 98.9184 4.23047 99.2466 4.23047C99.5747 4.22266 99.8481 4.21875 100.067 4.21875C100.075 4.25781 100.106 4.42188 100.161 4.71094C100.215 5 100.297 5.41406 100.407 5.95312C100.368 5.99219 100.278 6.01172 100.137 6.01172C100.051 6.01172 99.9966 5.98438 99.9731 5.92969C99.8794 5.72656 99.7387 5.54688 99.5512 5.39062C99.3716 5.22656 99.1723 5.09766 98.9536 5.00391C98.7427 4.90234 98.5356 4.85156 98.3325 4.85156H97.8872C97.3872 4.85156 97.1333 4.90234 97.1255 5.00391C97.1098 5.09766 97.0942 5.22266 97.0786 5.37891C97.0708 5.52734 97.0669 5.70703 97.0669 5.91797V7.72266C97.0669 7.76953 97.2348 7.79297 97.5708 7.79297H98.1919C98.6841 7.79297 98.9497 7.77734 98.9887 7.74609C99.0278 7.70703 99.0591 7.59375 99.0825 7.40625C99.0981 7.28125 99.1216 7.16797 99.1528 7.06641C99.1606 7.01172 99.2192 6.98438 99.3286 6.98438C99.4614 6.98438 99.5473 7.00391 99.5864 7.04297V9.25781C99.5552 9.28906 99.4731 9.30469 99.3403 9.30469C99.2387 9.30469 99.1762 9.27344 99.1528 9.21094C99.0591 8.90625 98.9966 8.71875 98.9653 8.64844C98.9341 8.59375 98.9106 8.57031 98.895 8.57812C98.8872 8.57812 98.8637 8.5625 98.8247 8.53125C98.7153 8.46875 98.4106 8.4375 97.9106 8.4375C97.3481 8.4375 97.0669 8.47266 97.0669 8.54297V10.3477C97.0669 10.7148 97.0981 10.9922 97.1606 11.1797C97.1919 11.3047 97.4575 11.3672 97.9575 11.3672H98.2622C98.7466 11.3672 99.1841 11.2656 99.5747 11.0625C99.7075 10.9922 99.8559 10.8594 100.02 10.6641C100.192 10.4688 100.325 10.25 100.418 10.0078C100.434 9.96094 100.489 9.9375 100.582 9.9375C100.77 9.9375 100.887 9.96094 100.934 10.0078C100.543 11.0859 100.332 11.7578 100.301 12.0234C100.106 12.0234 99.8481 12.0195 99.5278 12.0117C99.2153 12.0117 98.8403 12.0078 98.4028 12C97.9731 11.9922 97.5825 11.9844 97.2309 11.9766C96.8794 11.9609 96.5669 11.9609 96.2934 11.9766L94.5825 12.0469ZM109.664 12.082C109.281 12.082 108.929 12.0469 108.609 11.9766C108.296 11.8984 108.046 11.8125 107.859 11.7188C107.664 11.625 107.472 11.4844 107.285 11.2969C107.191 11.2031 107.105 11.1133 107.027 11.0273C106.949 10.9414 106.863 10.8359 106.769 10.7109C106.683 10.5781 106.57 10.4062 106.429 10.1953C106.289 9.97656 106.105 9.6875 105.878 9.32812C105.574 8.86719 105.371 8.61719 105.269 8.57812C105.253 8.57031 105.21 8.56641 105.14 8.56641C105.07 8.56641 105.035 8.62891 105.035 8.75391V10.3477C105.035 10.7617 105.062 11.082 105.117 11.3086C105.132 11.3711 105.199 11.4258 105.316 11.4727C105.433 11.5195 105.562 11.5547 105.703 11.5781C105.843 11.6016 105.953 11.6133 106.031 11.6133C106.062 11.6133 106.078 11.6875 106.078 11.8359C106.078 11.9141 106.07 11.9844 106.054 12.0469C105.585 12.0234 105.203 12.0039 104.906 11.9883C104.609 11.9727 104.394 11.9688 104.261 11.9766L102.55 12.0469C102.519 12.0156 102.503 11.9492 102.503 11.8477C102.503 11.6914 102.519 11.6133 102.55 11.6133C102.613 11.6133 102.703 11.6016 102.82 11.5781C102.937 11.5547 103.046 11.5234 103.148 11.4844C103.25 11.4375 103.308 11.3945 103.324 11.3555C103.371 11.1758 103.394 10.832 103.394 10.3242V5.89453C103.394 5.45703 103.371 5.15234 103.324 4.98047C103.308 4.93359 103.246 4.88672 103.136 4.83984C103.035 4.78516 102.925 4.74219 102.808 4.71094C102.691 4.67188 102.601 4.65234 102.539 4.65234C102.507 4.65234 102.492 4.58203 102.492 4.44141C102.492 4.31641 102.503 4.24219 102.527 4.21875C102.886 4.23438 103.207 4.25 103.488 4.26562C103.777 4.27344 104.031 4.27734 104.25 4.27734C104.625 4.26953 104.918 4.26562 105.128 4.26562C105.339 4.26562 105.5 4.26562 105.609 4.26562C105.718 4.26562 105.812 4.26562 105.89 4.26562C106.203 4.26562 106.515 4.30469 106.828 4.38281C107.148 4.46094 107.441 4.58203 107.707 4.74609C107.972 4.90234 108.183 5.10547 108.339 5.35547C108.503 5.59766 108.585 5.89062 108.585 6.23438C108.585 6.57812 108.515 6.89844 108.375 7.19531C108.234 7.49219 108.05 7.74219 107.824 7.94531C107.605 8.14844 107.378 8.28906 107.144 8.36719C107.082 8.39062 107.07 8.43359 107.109 8.49609C107.281 8.78516 107.414 9.00391 107.507 9.15234C107.601 9.30078 107.679 9.42188 107.742 9.51562C107.812 9.60156 107.894 9.71094 107.988 9.84375C108.082 9.96875 108.214 10.1602 108.386 10.418C108.519 10.6055 108.675 10.793 108.855 10.9805C109.043 11.1602 109.242 11.3125 109.453 11.4375C109.671 11.5547 109.878 11.6133 110.074 11.6133C110.105 11.6445 110.121 11.7148 110.121 11.8242C110.121 11.918 110.105 11.9961 110.074 12.0586C110.019 12.0664 109.957 12.0703 109.886 12.0703C109.824 12.0781 109.75 12.082 109.664 12.082ZM105.527 7.92188H105.843C106.148 7.92188 106.382 7.78906 106.546 7.52344C106.718 7.25781 106.804 6.90625 106.804 6.46875C106.804 5.42969 106.441 4.91016 105.714 4.91016C105.441 4.91016 105.261 4.94141 105.175 5.00391C105.082 5.07422 105.035 5.45703 105.035 6.15234V7.41797C105.035 7.63672 105.078 7.77734 105.164 7.83984C105.257 7.89453 105.378 7.92188 105.527 7.92188Z" fill="#C1859C"/>
<circle cx="43.5" cy="10.5" r="1.5" fill="#B4DC7F"/>
</svg>
